<svg xmlns="http://www.w3.org/2000/svg" viewBox="436 98 663 763" width="663" height="763" role="img" aria-label="BokPilot">
  <path fill="#020101" d="M 753.03 136.08 C 758.01 133.51 762.48 129.57 768.00 128.16 C 775.22 130.62 781.37 135.31 787.98 139.02 C 881.71 193.62 974.99 249.01 1068.82 303.43 C 1069.11 421.47 1069.14 539.52 1068.81 657.56 C 993.84 701.32 919.17 745.61 843.94 788.92 C 820.93 802.73 797.68 816.13 774.41 829.48 C 771.08 830.83 767.29 834.44 763.89 831.22 C 694.64 790.75 625.15 750.68 555.95 710.11 C 526.02 692.62 496.24 674.88 466.16 657.66 C 465.81 539.81 466.06 421.96 466.03 304.11 C 561.62 247.97 657.33 192.03 753.03 136.08 M 767.88 186.90 C 752.82 194.92 738.34 203.97 723.59 212.52 C 655.01 252.59 586.48 292.75 518.04 333.05 C 517.97 431.35 517.98 529.65 518.03 627.96 C 526.88 633.54 535.88 638.89 544.96 644.10 C 612.66 683.70 680.03 723.87 748.02 762.98 C 754.36 766.59 760.37 770.89 767.14 773.71 C 769.69 772.99 772.04 771.68 774.41 770.50 C 836.14 734.68 897.63 698.43 959.05 662.09 C 978.67 650.26 998.73 639.19 1018.12 627.00 C 1017.70 613.67 1016.72 600.36 1017.37 587.03 C 1017.90 502.65 1016.88 418.27 1017.87 333.91 C 1013.40 330.71 1008.72 327.81 1003.99 325.04 C 977.13 309.68 950.81 293.42 923.90 278.14 C 871.87 247.75 820.33 216.55 767.88 186.90 Z" />
  <path fill="#020101" d="M 748.88 242.96 C 749.13 314.95 748.97 386.94 748.96 458.92 C 736.43 465.97 723.79 472.84 711.66 480.57 C 724.32 487.02 736.24 494.82 748.82 501.42 C 749.13 573.79 749.09 646.16 748.84 718.53 C 717.62 701.31 687.47 682.26 656.59 664.46 C 623.34 645.06 590.44 625.05 557.06 605.88 C 556.95 522.60 556.99 439.32 557.03 356.04 C 590.18 336.06 623.79 316.86 657.06 297.06 C 687.66 279.01 718.14 260.77 748.88 242.96 M 616.90 382.81 C 614.27 384.87 609.23 386.07 609.63 390.26 C 609.72 411.42 610.03 432.58 609.51 453.74 C 623.50 453.94 637.57 454.84 651.53 453.32 C 659.46 450.52 666.42 445.58 673.95 441.90 C 681.11 437.73 689.07 434.79 695.67 429.73 C 696.60 398.76 695.81 367.67 695.85 336.66 C 669.57 352.12 643.28 367.55 616.90 382.81 M 609.64 506.37 C 609.73 528.94 608.66 551.50 609.41 574.08 C 638.21 590.87 666.82 608.01 695.91 624.29 C 696.05 592.99 696.14 561.69 695.83 530.39 C 686.57 525.23 677.37 519.95 668.03 514.94 C 662.13 511.84 656.47 507.99 649.94 506.30 C 636.52 505.36 623.06 506.00 609.64 506.37 Z" />
  <path fill="#020101" d="M 787.02 243.01 C 850.48 281.00 914.47 318.09 977.99 356.00 C 978.02 405.99 978.00 455.99 977.99 505.99 C 931.99 506.03 886.00 505.97 840.00 506.01 C 839.90 566.56 840.18 627.12 839.88 687.68 C 822.18 697.70 804.82 708.31 787.18 718.42 C 786.77 559.95 787.10 401.48 787.02 243.01 M 840.02 336.98 C 839.97 375.98 840.00 414.99 840.01 453.99 C 868.33 454.01 896.66 454.01 924.99 454.00 C 925.01 431.65 925.02 409.31 925.00 386.97 C 896.77 370.13 868.30 353.72 840.02 336.98 Z" />
</svg>
